<svg width="17" height="15" viewBox="0 0 17 15" fill="none" xmlns="http://www.w3.org/2000/svg">
<path fill-rule="evenodd" clip-rule="evenodd" d="M5.5688 0C5.04425 0 4.45105 0.0508724 3.88443 0.228573C0.468374 1.25488 -0.6299 4.61176 0.33557 7.37854L0.339626 7.39016L0.344075 7.40167C0.876048 8.77716 1.73315 10.0254 2.84807 11.0521L2.85449 11.0581L2.86104 11.0638C4.45056 12.4664 6.18082 13.6894 8.05427 14.7506L8.49457 15L8.93783 14.7551C10.8154 13.7177 12.5789 12.461 14.1493 11.0698L14.1543 11.0654L14.1591 11.061C15.2837 10.0323 16.1408 8.77483 16.665 7.39802L16.6694 7.38651L16.6733 7.37489C17.6205 4.61413 16.5278 1.25323 13.1353 0.242061C12.5799 0.0720574 12.0068 0 11.4465 0C9.5 0.5 9.2475 1.00513 8.49457 1.5C7.74752 1.00889 7.5 0.5 5.5688 0Z" fill="#FF0000"/>
</svg>
